<?xml version="1.0" encoding="UTF-8"?>
<svg xmlns="http://www.w3.org/2000/svg" width="32" height="32" viewBox="0 0 32 32" fill="none">
  <defs>
    <linearGradient id="pm-brand-token" x1="0" y1="0" x2="32" y2="32" gradientUnits="userSpaceOnUse">
      <stop offset="0%" stop-color="#3B82F6" />
      <stop offset="100%" stop-color="#9333EA" />
    </linearGradient>
  </defs>
  <circle cx="16" cy="16" r="16" fill="url(#pm-brand-token)" />
  <g transform="translate(7.000 7.000) scale(0.035156)" fill="#ffffff">
    <path d="M416 208c0 45.9-14.9 88.3-40 122.7L502.6 457.4c12.5 12.5 12.5 32.8 0 45.3s-32.8 12.5-45.3 0L330.7 376c-34.4 25.2-76.8 40-122.7 40C93.1 416 0 322.9 0 208S93.1 0 208 0S416 93.1 416 208zM208 352a144 144 0 1 0 0-288 144 144 0 1 0 0 288z" />
  </g>
</svg>