<?xml version="1.0" encoding="UTF-8"?>
<svg xmlns="http://www.w3.org/2000/svg" width="32" height="32" viewBox="0 0 32 32" fill="none">
  <defs>
    <linearGradient id="pm-brand-token" x1="0" y1="0" x2="32" y2="32" gradientUnits="userSpaceOnUse">
      <stop offset="0%" stop-color="#3B82F6" />
      <stop offset="100%" stop-color="#9333EA" />
    </linearGradient>
  </defs>
  <circle cx="16" cy="16" r="16" fill="url(#pm-brand-token)" />
  <g transform="translate(8.125 7.000) scale(0.035156)" fill="#ffffff">
    <path d="M64 32C28.7 32 0 60.7 0 96L0 416c0 35.3 28.7 64 64 64l224 0 0-112c0-26.5 21.5-48 48-48l112 0 0-224c0-35.3-28.7-64-64-64L64 32zM448 352l-45.3 0L336 352c-8.8 0-16 7.2-16 16l0 66.7 0 45.3 32-32 64-64 32-32z" />
  </g>
</svg>